<svg width="36" height="36" viewBox="0 0 36 36" fill="none" xmlns="http://www.w3.org/2000/svg">
<g opacity="0.4">
<path d="M14.4287 24L16.6787 26.25L21.5537 21.75" stroke="#3D4754" stroke-width="1.5" stroke-linecap="round" stroke-linejoin="round"/>
<path d="M13.2142 3L7.78418 8.445" stroke="#3D4754" stroke-width="1.5" stroke-miterlimit="10" stroke-linecap="round" stroke-linejoin="round"/>
<path d="M22.7842 3L28.2142 8.445" stroke="#3D4754" stroke-width="1.5" stroke-miterlimit="10" stroke-linecap="round" stroke-linejoin="round"/>
</g>
<path d="M3 11.7751C3 9.00015 4.485 8.77515 6.33 8.77515H29.67C31.515 8.77515 33 9.00015 33 11.7751C33 15.0001 31.515 14.7751 29.67 14.7751H6.33C4.485 14.7751 3 15.0001 3 11.7751Z" stroke="#3D4754" stroke-width="1.5"/>
<path d="M5.25 15L7.365 27.96C7.845 30.87 9 33 13.29 33H22.335C27 33 27.69 30.96 28.23 28.14L30.75 15" stroke="#3D4754" stroke-width="1.5" stroke-linecap="round"/>
</svg>
