<svg width="20" height="20" viewBox="0 0 20 20" fill="none" xmlns="http://www.w3.org/2000/svg">
<path d="M14.2 0H5.8C2.17143 0 0 2.17143 0 5.8V14.2C0 17.8286 2.17143 20 5.8 20H14.2C17.8286 20 20 17.8286 20 14.2V5.8C20 2.17143 17.8286 0 14.2 0ZM16.8857 11.2286C16.6 11.5143 16.1714 11.7143 15.7143 11.7429H11.6857L11.7143 15.7143C11.6857 16.2 11.5143 16.6 11.1714 16.9429C10.8857 17.2286 10.4571 17.4286 10 17.4286C9.05714 17.4286 8.28571 16.6571 8.28571 15.7143V11.7143L4.28571 11.7429C3.34286 11.7429 2.57143 10.9429 2.57143 10C2.57143 9.05714 3.34286 8.28572 4.28571 8.28572L8.28571 8.31428V4.31428C8.28571 3.37143 9.05714 2.57143 10 2.57143C10.9429 2.57143 11.7143 3.37143 11.7143 4.31428L11.6857 8.28572H15.7143C16.6571 8.28572 17.4286 9.05714 17.4286 10C17.4 10.4857 17.2 10.8857 16.8857 11.2286Z" fill="black"/>
</svg>
